<svg id="Layer_1" data-name="Layer 1" xmlns="http://www.w3.org/2000/svg" xmlns:xlink="http://www.w3.org/1999/xlink" width="1920" height="1080" viewBox="0 0 1920 1080"><defs><style>.cls-1{mask:url(#mask);filter:url(#luminosity-noclip-2);}.cls-2{mix-blend-mode:multiply;fill:url(#Áåçûìÿííûé_ãðàäèåíò_216);}.cls-3{fill:#fff;}.cls-4{fill:none;}.cls-5{clip-path:url(#clip-path);}.cls-6{fill:url(#Áåçûìÿííûé_ãðàäèåíò_86);}.cls-7{fill:url(#Áåçûìÿííûé_ãðàäèåíò_86-2);}.cls-8{fill:url(#Áåçûìÿííûé_ãðàäèåíò_86-3);}.cls-9{opacity:0.44;}.cls-10{mask:url(#mask-2);}.cls-11{isolation:isolate;}.cls-12{clip-path:url(#clip-path-2);}.cls-13{clip-path:url(#clip-path-3);}.cls-14{fill:#1f1f1f;}.cls-15{fill:#2b2b2b;}.cls-16{fill:#353535;}.cls-17{fill:#3d3d3d;}.cls-18{fill:#444;}.cls-19{clip-path:url(#clip-path-4);}.cls-20{clip-path:url(#clip-path-5);}.cls-21{fill:#78b8b1;}.cls-22{fill:#74b3ac;}.cls-23{fill:#71ada7;}.cls-24{fill:#6ea8a2;}.cls-25{fill:#6aa39d;}.cls-26{fill:#679e99;}.cls-27{fill:#649994;}.cls-28{fill:#60948f;}.cls-29{fill:#5d8f8a;}.cls-30{fill:#5a8a85;}.cls-31{fill:#568580;}.cls-32{clip-path:url(#clip-path-6);}.cls-33{clip-path:url(#clip-path-7);}.cls-34{clip-path:url(#clip-path-8);}.cls-35{clip-path:url(#clip-path-9);}.cls-36{fill:#7bbdb6;}.cls-37{fill:#7ec2bb;}.cls-38{fill:#81c7c0;}.cls-39{fill:#85ccc5;}.cls-40{fill:#8fdcd4;}.cls-41{clip-path:url(#clip-path-10);}.cls-42{fill:#80c5be;}.cls-43{clip-path:url(#clip-path-11);}.cls-44{clip-path:url(#clip-path-12);}.cls-45{fill:#88d1ca;}.cls-46{fill:#8bd6cf;}.cls-47{fill:#8fdbd4;}.cls-48{fill:#92e0d8;}.cls-49{fill:#95e6dd;}.cls-50{fill:#99ebe2;}.cls-51{fill:#9cf0e7;}.cls-52{fill:#9ff5ec;}.cls-53{fill:#a3faf1;}.cls-54{fill:#a6fff6;}.cls-55{fill:#b1fff7;}.cls-56{fill:#b5fff8;}.cls-57{fill:#b8fff8;}.cls-58{fill:#bbfff8;}.cls-59{fill:#befff8;}.cls-60{fill:#005487;}.cls-61{fill:url(#Áåçûìÿííûé_ãðàäèåíò_18);}.cls-62{fill:url(#Áåçûìÿííûé_ãðàäèåíò_22);}.cls-63{fill:#00b3ff;}.cls-64{fill:url(#Áåçûìÿííûé_ãðàäèåíò_22-2);}.cls-65{filter:url(#luminosity-noclip);}</style><filter id="luminosity-noclip" x="376.7672" y="-8732" width="445.8743" height="32766" filterUnits="userSpaceOnUse" color-interpolation-filters="sRGB"><feFlood flood-color="#fff" result="bg"/><feBlend in="SourceGraphic" in2="bg"/></filter><mask id="mask" x="376.7672" y="-8732" width="445.8743" height="32766" maskUnits="userSpaceOnUse"><g class="cls-65"/></mask><linearGradient id="Áåçûìÿííûé_ãðàäèåíò_216" x1="1097.2889" y1="872.8423" x2="1543.1632" y2="872.8423" gradientTransform="matrix(-1, 0, 0, 1, 1919.9304, 0)" gradientUnits="userSpaceOnUse"><stop offset="0" stop-color="#fff"/><stop offset="0.1442" stop-color="#ebebeb"/><stop offset="0.7301" stop-color="#9e9e9e"/><stop offset="1" stop-color="gray"/></linearGradient><clipPath id="clip-path"><rect class="cls-3" x="0.1664" y="-1.1892" width="1919.8336" height="1082.1892" transform="translate(1920.1664 1079.8108) rotate(180)"/></clipPath><linearGradient id="Áåçûìÿííûé_ãðàäèåíò_86" x1="166.3193" y1="461.8162" x2="1241.5025" y2="461.8162" gradientTransform="matrix(0.7773, -0.6291, -0.6291, -0.7773, 1968.9045, 906.7942)" gradientUnits="userSpaceOnUse"><stop offset="0" stop-color="#e3f6ff"/><stop offset="0.4924" stop-color="#6cc7ff"/><stop offset="0.8408" stop-color="#1ea9ff"/><stop offset="1" stop-color="#009dff"/></linearGradient><linearGradient id="Áåçûìÿííûé_ãðàäèåíò_86-2" x1="-1201.5417" y1="-307.1597" x2="-126.3584" y2="-307.1597" gradientTransform="matrix(-0.7773, 0.6291, 0.6291, 0.7773, 1822.1155, 2002.6191)" xlink:href="#Áåçûìÿííûé_ãðàäèåíò_86"/><linearGradient id="Áåçûìÿííûé_ãðàäèåíò_86-3" x1="974.2114" y1="232.7956" x2="1881.305" y2="1139.8892" gradientTransform="matrix(-1, 0, 0, 1, 1919.9304, 0)" xlink:href="#Áåçûìÿííûé_ãðàäèåíò_86"/><filter id="luminosity-noclip-2" x="376.7672" y="749.0091" width="445.8743" height="247.6664" filterUnits="userSpaceOnUse" color-interpolation-filters="sRGB"><feFlood flood-color="#fff" result="bg"/><feBlend in="SourceGraphic" in2="bg"/></filter><mask id="mask-2" x="376.7672" y="749.0091" width="445.8743" height="247.6664" maskUnits="userSpaceOnUse"><g class="cls-1"><path class="cls-2" d="M388.1868,907.183c-15.1561,8.4022-15.2361,22.0288-.1784,30.4311l94.5489,52.76c15.0576,8.4024,39.5575,8.4025,54.7137,0L811.2152,838.5054c15.1639-8.4066,15.2438-22.0331.1861-30.4354l-94.5488-52.7595c-15.0577-8.4025-39.5576-8.4025-54.7214.004Z"/></g></mask><clipPath id="clip-path-2"><path class="cls-4" d="M708.5152,811.0382a50.4246,50.4246,0,0,1-6.6512,4.441l16.5748,9.2489a50.4238,50.4238,0,0,0,6.6512-4.4409Z"/></clipPath><clipPath id="clip-path-3"><path class="cls-4" d="M734.6236,760.5541c.0525,17.7241-11.1551,38.7534-26.1084,50.4841l16.5748,9.249c14.9533-11.7307,26.1609-32.76,26.1086-50.4842Z"/></clipPath><clipPath id="clip-path-4"><path class="cls-4" d="M468.0709,934.35l16.5749,9.249c5.9651,3.3286,14.1829,2.8759,23.2453-2.1482l-16.5748-9.2489C482.2538,937.2261,474.0361,937.6788,468.0709,934.35Z"/></clipPath><clipPath id="clip-path-5"><path class="cls-4" d="M468.07,934.3509l16.575,9.2491c-5.9831-3.3387-9.7-10.4815-9.73-20.6313L458.34,913.72C458.37,923.87,462.0867,931.0123,468.07,934.3509Z"/></clipPath><clipPath id="clip-path-6"><path class="cls-4" d="M761.2208,365.7934l-16.5749-9.249a1.6455,1.6455,0,0,0-1.6042.15l16.575,9.2489A1.6457,1.6457,0,0,1,761.2208,365.7934Z"/></clipPath><clipPath id="clip-path-7"><path class="cls-4" d="M760.99,286.73l-16.575-9.249a1.6479,1.6479,0,0,0-1.6062.15l16.5748,9.249A1.6486,1.6486,0,0,1,760.99,286.73Z"/></clipPath><clipPath id="clip-path-8"><path class="cls-4" d="M723.3126,222.8354c6.0151,3.3266,9.7544,10.4839,9.7845,20.6688l16.5749,9.2489c-.03-10.1847-3.7694-17.3422-9.7846-20.6687C734.915,229.31,728.285,225.61,723.3126,222.8354Z"/></clipPath><clipPath id="clip-path-9"><path class="cls-4" d="M739.9394,232.1136l-16.5749-9.249c-5.9651-3.3286-14.1824-2.8753-23.2446,2.1486l16.575,9.2489C725.757,229.2383,733.9742,228.785,739.9394,232.1136Z"/></clipPath><clipPath id="clip-path-10"><path class="cls-4" d="M658.4893,266.53l-16.5748-9.249-21.0809,11.6867,16.5748,9.2491C643.144,275.037,657.7221,266.9552,658.4893,266.53Z"/></clipPath><clipPath id="clip-path-11"><path class="cls-4" d="M600.1787,298.856l-16.5748-9.249L549.107,308.7313l16.5748,9.249Z"/></clipPath><clipPath id="clip-path-12"><path class="cls-4" d="M506.1475,350.9848l-16.5748-9.249C471.42,351.8,456.7535,376.3913,456.8133,396.669l16.5749,9.249C473.3283,385.64,487.9945,361.0485,506.1475,350.9848Z"/></clipPath><linearGradient id="Áåçûìÿííûé_ãðàäèåíò_18" x1="1633.9129" y1="361.6999" x2="1660.0055" y2="361.6999" gradientTransform="matrix(-1, 0, 0, 1, 1919.9304, 0)" gradientUnits="userSpaceOnUse"><stop offset="0" stop-color="#bababa"/><stop offset="0.0227" stop-color="#bebebe"/><stop offset="0.1762" stop-color="#d1d1d1"/><stop offset="0.3331" stop-color="#dcdcdc"/><stop offset="0.4974" stop-color="#e0e0e0"/><stop offset="0.766" stop-color="#dedede"/><stop offset="0.9111" stop-color="#d6d6d6"/><stop offset="1" stop-color="#ccc"/></linearGradient><linearGradient id="Áåçûìÿííûé_ãðàäèåíò_22" x1="1460.5656" y1="237.6695" x2="1693.348" y2="237.6695" gradientTransform="matrix(-1, 0, 0, 1, 1919.9304, 0)" gradientUnits="userSpaceOnUse"><stop offset="0" stop-color="#bababa"/><stop offset="0.1254" stop-color="#cecece"/><stop offset="0.2937" stop-color="#e1e1e1"/><stop offset="0.4659" stop-color="#ececec"/><stop offset="0.6462" stop-color="#f0f0f0"/><stop offset="0.8053" stop-color="#eee"/><stop offset="0.8915" stop-color="#e6e6e6"/><stop offset="0.9599" stop-color="#d8d8d8"/><stop offset="1" stop-color="#ccc"/></linearGradient><linearGradient id="Áåçûìÿííûé_ãðàäèåíò_22-2" x1="1543.4776" y1="535.4873" x2="1829.8975" y2="535.4873" xlink:href="#Áåçûìÿííûé_ãðàäèåíò_22"/></defs><rect class="cls-3" x="0.1664" y="-1.1892" width="1919.8336" height="1082.1892" transform="translate(1920.1664 1079.8108) rotate(180)"/><g class="cls-5"><path class="cls-6" d="M2878.3265,59.4936c37.31,34.9356,51.9273,80.7554,39.6265,124.7233-34.9122,124.79-150.902,364.9868-527.5951,378.8833-426.6249,15.7386-347.11-418.9063-701.736-415.7859q-5.3193.0468-10.5674.0758c-182.99,1.0123-265.24-173.39-123-260.6468l534.934-328.1567c84.55-51.8675,208.5692-41.9669,277.0048,22.1137Z"/><path class="cls-7" d="M1492.1691,1391.6735c-37.31-34.9355-51.9272-80.7555-39.6264-124.7234,34.9122-124.79,150.902-364.9868,527.5951-378.8833,426.6249-15.7384,347.11,418.9064,701.7359,415.7859q5.32-.0468,10.5675-.0758c182.9895-1.0123,265.24,173.39,123,260.6468l-534.9339,328.1569c-84.55,51.8673-208.5694,41.9667-277.0049-22.1138Z"/></g><path class="cls-8" d="M.1664,213.71s338.7436-336.4168,701.35-97.6258C1004.6962,315.74,632.9639,628.943,877.7032,802.99s184.45,278.01,184.45,278.01H.1664Z"/><g class="cls-9"><g class="cls-10"><path class="cls-3" d="M388.1868,907.183c-15.1561,8.4022-15.2361,22.0288-.1784,30.4311l94.5489,52.76c15.0576,8.4024,39.5575,8.4025,54.7137,0L811.2152,838.5054c15.1639-8.4066,15.2438-22.0331.1861-30.4354l-94.5488-52.7595c-15.0577-8.4025-39.5576-8.4025-54.7214.004Z"/></g></g><g class="cls-11"><g class="cls-12"><path d="M725.8007,819.72q-.7187.5824-1.4491,1.1362l-16.5749-9.249q.73-.5534,1.4492-1.1361Z"/><path d="M724.3516,820.8566q-.7075.5361-1.4255,1.0439l-16.5748-9.2489q.7177-.5078,1.4254-1.044Z"/><path d="M722.9261,821.9005q-.7026.497-1.4144.9655l-16.5749-9.2491q.7119-.4681,1.4145-.9653Z"/><path d="M721.5117,822.866q-.6853.4511-1.3789.8751L703.558,814.492q.6933-.4237,1.3788-.8751Z"/><path d="M720.1328,823.7411q-.6837.4179-1.3747.8083l-16.5749-9.2489q.6909-.39,1.3748-.8085Z"/><path d="M718.7581,824.5494q-.1595.09-.3193.1787l-16.5748-9.2489q.16-.0886.3192-.1787Z"/></g></g><g class="cls-11"><g class="cls-13"><path d="M751.1986,769.803q.0019.7255-.0208,1.4581l-16.5749-9.2489q.023-.7326.0208-1.4581Z"/><path d="M751.1778,771.2611q-.0242.7781-.076,1.5632l-16.5749-9.249q.0519-.7849.076-1.5631Z"/><path d="M751.1018,772.8243q-.0517.7823-.13,1.5709l-16.5749-9.2491q.0784-.7883.13-1.5708Z"/><path d="M750.9716,774.3952q-.0784.7881-.1833,1.5817l-16.5749-9.249q.1047-.7934.1833-1.5818Z"/><path d="M750.7883,775.9769q-.1068.8086-.24,1.6217l-16.5749-9.249q.1335-.8129.24-1.6217Z"/><path d="M750.548,777.5986q-.1338.814-.2939,1.6319l-16.5748-9.249q.16-.8176.2938-1.6319Z"/><path d="M750.2541,779.2305q-.1641.8391-.3554,1.6809l-16.5748-9.249q.1911-.8416.3554-1.6809Z"/><path d="M749.8987,780.9114q-.1917.8435-.41,1.6883l-16.5749-9.249q.2182-.8447.41-1.6883Z"/><path d="M749.4889,782.6q-.22.8538-.4672,1.708l-16.5749-9.2491q.2467-.8541.4672-1.7079Z"/><path d="M749.0217,784.3077q-.2452.8481-.5158,1.6961l-16.5748-9.2489q.27-.8478.5157-1.6963Z"/><path d="M748.5059,786.0038q-.2661.8336-.5561,1.6655l-16.5749-9.249q.29-.8319.5562-1.6654Z"/><path d="M747.95,787.6693q-.2848.8167-.592,1.6311l-16.5749-9.249q.3072-.8142.592-1.6311Z"/><path d="M747.3578,789.3q-.2981.7893-.6165,1.5754l-16.5748-9.2489q.3184-.786.6164-1.5755Z"/><path d="M746.7413,790.8758q-.3158.7794-.6512,1.5547l-16.575-9.249q.3356-.7752.6514-1.5546Z"/><path d="M746.09,792.4305q-.3307.7638-.68,1.5229l-16.5748-9.249q.3494-.759.68-1.5229Z"/><path class="cls-14" d="M745.41,793.9534q-.3608.7838-.7409,1.562l-16.5749-9.249q.38-.7779.741-1.562Z"/><path class="cls-15" d="M744.6692,795.5154q-.4068.8323-.8352,1.657l-16.5748-9.249q.4284-.8244.8351-1.657Z"/><path class="cls-16" d="M743.834,797.1724q-.5074.9768-1.0445,1.9413l-16.575-9.249q.5368-.964,1.0447-1.9413Z"/><path class="cls-17" d="M742.79,799.1137q-.8115,1.4573-1.6875,2.8814l-16.5749-9.249q.8754-1.423,1.6874-2.8814Z"/><path class="cls-18" d="M741.102,801.9951q-1.1437,1.8593-2.3907,3.65l-16.5748-9.249q1.2455-1.7885,2.3906-3.65Z"/><path class="cls-17" d="M738.7113,805.6453q-1.0047,1.4425-2.0713,2.832l-16.5749-9.2489q1.0659-1.3882,2.0714-2.8321Z"/><path class="cls-16" d="M736.64,808.4773q-.71.9247-1.4458,1.8229l-16.5748-9.2491q.7354-.8976,1.4457-1.8227Z"/><path class="cls-15" d="M735.1942,810.3q-.6281.7665-1.2739,1.5122l-16.5749-9.249q.6457-.7455,1.274-1.5123Z"/><path class="cls-14" d="M733.92,811.8124q-.6222.7183-1.26,1.4161l-16.5749-9.249q.638-.6975,1.26-1.4161Z"/><path d="M732.66,813.2285q-.6277.6862-1.27,1.3514l-16.5749-9.2489q.6421-.6649,1.27-1.3515Z"/><path d="M731.39,814.58q-.6615.6849-1.3377,1.3462l-16.5748-9.249q.6761-.6609,1.3376-1.3461Z"/><path d="M730.0523,815.9261q-.6805.6656-1.3753,1.3056l-16.575-9.2489q.6949-.64,1.3755-1.3057Z"/><path d="M728.677,817.2317q-.7084.6528-1.4309,1.2778l-16.5748-9.2489q.7223-.625,1.4307-1.2778Z"/><path d="M727.2461,818.51q-.7161.62-1.4454,1.2109l-16.5748-9.2489q.729-.5911,1.4454-1.2109Z"/><path d="M725.8007,819.72q-.7187.5824-1.4491,1.1362l-16.5749-9.249q.73-.5534,1.4492-1.1361Z"/></g></g><polygon points="718.439 824.728 507.891 941.451 491.316 932.202 701.864 815.479 718.439 824.728"/><g class="cls-11"><g class="cls-19"><path d="M507.8912,941.451q-.5183.2873-1.0327.5547l-16.5748-9.249q.5143-.2675,1.0326-.5547Z"/><path d="M506.8585,942.0057q-.6685.3477-1.33.6618l-16.5748-9.249q.6618-.3143,1.3305-.6618Z"/><path d="M505.528,942.6675q-.6617.3144-1.3159.5955l-16.5749-9.2491q.6543-.2812,1.316-.5954Z"/><path d="M504.2121,943.263q-.6543.2811-1.3006.53l-16.5749-9.249q.6463-.2486,1.3006-.53Z"/><path d="M502.9115,943.7926q-.66.254-1.312.4738l-16.5749-9.2489q.6516-.22,1.312-.4739Z"/><path d="M501.6,944.2664q-.6568.2219-1.3042.41l-16.5748-9.2491q.6472-.1877,1.3041-.4094Z"/><path d="M500.2953,944.676q-.6771.1964-1.3435.3558l-16.5748-9.249q.6663-.1594,1.3435-.3559Z"/><path d="M498.9518,945.0318q-.6753.1617-1.3387.2856l-16.5749-9.249q.6634-.1239,1.3388-.2856Z"/><path d="M497.6131,945.3174q-.72.1347-1.4252.2254l-16.5748-9.2489q.705-.0909,1.4251-.2255Z"/><path d="M496.1879,945.5428q-.7306.0942-1.4448.1417l-16.5749-9.2489q.7138-.0477,1.4449-.1417Z"/><path d="M494.7431,945.6845q-.7846.0524-1.548.0489l-16.5749-9.249q.763.0034,1.548-.0488Z"/><path d="M493.1951,945.7334q-.8615-.0036-1.6936-.0774l-16.5748-9.249q.8318.0736,1.6935.0774Z"/><path d="M491.5015,945.656a18.705,18.705,0,0,1-1.8865-.2631l-16.5749-9.249a18.646,18.646,0,0,0,1.8866.2631Z"/><path d="M489.615,945.3929a17.2507,17.2507,0,0,1-2.3045-.61l-16.5748-9.249a17.2493,17.2493,0,0,0,2.3044.61Z"/><path d="M487.3105,944.7833a16.182,16.182,0,0,1-2.6647-1.1841L468.071,934.35a16.1736,16.1736,0,0,0,2.6647,1.1841Z"/></g></g><g class="cls-11"><g class="cls-20"><path class="cls-21" d="M474.9152,923.0616,458.34,913.8127l0-.093,16.575,9.249Z"/><path class="cls-22" d="M474.9533,924.6238l-16.5748-9.249q-.034-.7688-.0382-1.5621l16.5749,9.2489Q474.9192,923.8551,474.9533,924.6238Z"/><path class="cls-23" d="M475.0517,926.15l-16.5749-9.249q-.0641-.75-.0983-1.5261l16.5748,9.249Q474.9877,925.4,475.0517,926.15Z"/><path class="cls-24" d="M475.2191,927.703l-16.575-9.2489q-.1-.7622-.1673-1.5532l16.5749,9.249Q475.1191,926.9409,475.2191,927.703Z"/><path class="cls-25" d="M475.46,929.2491,458.8847,920q-.1371-.7574-.2406-1.546l16.575,9.2489Q475.3223,928.4916,475.46,929.2491Z"/><path class="cls-26" d="M475.7885,930.823l-16.5749-9.249q-.183-.7689-.3289-1.5739l16.5748,9.249Q475.6055,930.054,475.7885,930.823Z"/><path class="cls-27" d="M476.2359,932.4725l-16.5748-9.249q-.2457-.8025-.4475-1.6495l16.5749,9.249Q475.99,931.67,476.2359,932.4725Z"/><path class="cls-28" d="M476.8247,934.1752,460.25,924.9263q-.32-.8243-.5887-1.7028l16.5748,9.249Q476.5046,933.3509,476.8247,934.1752Z"/><path class="cls-29" d="M477.6331,936.0137l-16.5749-9.2489q-.4369-.8823-.8084-1.8385l16.5749,9.2489Q477.1955,935.1314,477.6331,936.0137Z"/><path class="cls-30" d="M478.8979,938.2112l-16.5749-9.249a19.9821,19.9821,0,0,1-1.2648-2.1974l16.5749,9.2489A19.9836,19.9836,0,0,0,478.8979,938.2112Z"/><path class="cls-31" d="M484.6446,943.6l-16.575-9.249a16.6162,16.6162,0,0,1-5.7466-5.3887l16.5749,9.249A16.6174,16.6174,0,0,0,484.6446,943.6Z"/></g></g><g class="cls-11"><g class="cls-32"><path d="M761.2208,365.7934a1.095,1.095,0,0,0-.1832-.0813l-16.5749-9.249a1.1115,1.1115,0,0,1,.1832.0813Z"/><path d="M761.0376,365.7121a1.2107,1.2107,0,0,0-.1581-.0419l-16.5749-9.2489a1.1757,1.1757,0,0,1,.1581.0418Z"/><path d="M760.88,365.67a1.2788,1.2788,0,0,0-.13-.0181l-16.5749-9.2489a1.2439,1.2439,0,0,1,.13.0181Z"/><path d="M760.7493,365.6521q-.0574-.0051-.117-.0053l-16.5749-9.249c.04,0,.0788.0019.117.0054Z"/><path d="M760.6323,365.6468c-.0349,0-.07.001-.1062.0033l-16.575-9.249c.036-.0023.0715-.0034.1063-.0033Z"/><path d="M760.5261,365.65q-.05.0033-.1.01l-16.5748-9.249c.0338-.0044.0672-.0076.1-.01Z"/><path d="M760.4258,365.66q-.0488.0063-.0985.0155l-16.5749-9.2489c.0332-.0063.0661-.0114.0986-.0156Z"/><path d="M760.3273,365.6755c-.0305.0058-.0613.0123-.0925.02l-16.5748-9.249q.0467-.0111.0924-.02Z"/><path d="M760.2348,365.6953c-.0307.0074-.0616.0156-.0929.0247l-16.5749-9.2491c.0312-.0091.0623-.0173.093-.0246Z"/><path d="M760.1419,365.72q-.0447.0129-.09.0282l-16.5748-9.249c.03-.01.06-.0195.09-.0283Z"/><path d="M760.0517,365.7482q-.045.0153-.0907.0329l-16.5748-9.2491c.03-.0117.0607-.0225.0907-.0328Z"/><path d="M759.961,365.7811c-.03.0114-.06.0236-.09.0365l-16.5748-9.2489q.0451-.0195.09-.0367Z"/><path d="M759.871,365.8176c-.03.013-.06.0267-.091.0412l-16.5749-9.249q.0459-.0217.0911-.0411Z"/><path d="M759.78,365.8588q-.0457.0217-.092.0458l-16.5748-9.249q.0462-.0242.0919-.0458Z"/><path d="M759.688,365.9046c-.0237.0123-.0474.0251-.0713.0383l-16.5749-9.2489c.0238-.0132.0477-.0261.0714-.0384Z"/></g></g><polygon points="759.617 365.943 757.957 366.863 741.382 357.614 743.042 356.694 759.617 365.943"/><g class="cls-11"><g class="cls-33"><path d="M760.99,286.73a1.1177,1.1177,0,0,0-.1834-.0814l-16.5749-9.249a1.1056,1.1056,0,0,1,.1834.0814Z"/><path d="M760.8062,286.6481a1.1851,1.1851,0,0,0-.1582-.0418l-16.5749-9.249a1.1963,1.1963,0,0,1,.1582.0418Z"/><path d="M760.648,286.6063a1.2788,1.2788,0,0,0-.13-.0181l-16.5749-9.2491q.0668.006.13.0182Z"/><path d="M760.5176,286.5882q-.0576-.0051-.1171-.0054l-16.575-9.249q.06,0,.1172.0053Z"/><path d="M760.4005,286.5828q-.0525,0-.1063.0034l-16.5749-9.249c.0359-.0024.0714-.0035.1062-.0034Z"/><path d="M760.2942,286.5862c-.0332.0022-.0667.0054-.1005.01l-16.5749-9.249q.0509-.0064.1005-.01Z"/><path d="M760.1937,286.596c-.0325.0042-.0655.0094-.0988.0157l-16.5748-9.249q.05-.0095.0987-.0157Z"/><path d="M760.0949,286.6117q-.0459.0085-.0925.02l-16.5749-9.2491c.0311-.0075.062-.014.0926-.02Z"/><path d="M760.0024,286.6315q-.0462.0109-.0931.0246l-16.575-9.249c.0314-.0091.0624-.0174.0932-.0247Z"/><path d="M759.9093,286.6561c-.03.0086-.06.0181-.09.0283l-16.5749-9.2489c.03-.01.06-.02.09-.0284Z"/><path d="M759.819,286.6844q-.0451.0153-.091.0329l-16.5748-9.249q.0458-.0176.0909-.0328Z"/><path d="M759.728,286.7173c-.03.0115-.06.0237-.09.0366l-16.5748-9.249c.03-.0129.06-.0252.09-.0366Z"/><path d="M759.6379,286.7539c-.03.013-.0606.0268-.0911.0413l-16.5748-9.249q.0458-.0217.0911-.0413Z"/><path d="M759.5468,286.7952q-.0457.0217-.0921.0458L742.88,277.592q.0463-.024.0922-.0458Z"/><path d="M759.4547,286.841c-.0238.0123-.0476.0252-.0715.0384l-16.5748-9.249c.0239-.0132.0477-.0261.0714-.0384Z"/></g></g><polygon points="759.383 286.879 757.724 287.799 741.149 278.55 742.808 277.63 759.383 286.879"/><polygon points="751.199 769.803 734.624 760.554 733.097 243.504 749.672 252.753 751.199 769.803"/><g class="cls-11"><g class="cls-34"><path d="M745.6871,237.5026l-16.5748-9.249a16.617,16.617,0,0,0-5.7468-5.3888l16.5748,9.249A16.6152,16.6152,0,0,1,745.6871,237.5026Z"/><path d="M746.9523,239.7005l-16.5749-9.2489a19.9581,19.9581,0,0,0-1.2651-2.198l16.5748,9.249A19.9664,19.9664,0,0,1,746.9523,239.7005Z"/><path d="M747.761,241.54l-16.5748-9.249q-.3711-.9564-.8088-1.8392l16.5749,9.2489Q747.39,240.5831,747.761,241.54Z"/><path d="M748.35,243.2434l-16.5748-9.2491q-.269-.8787-.5891-1.7035l16.5748,9.249Q748.0811,242.3647,748.35,243.2434Z"/><path d="M748.7977,244.8938l-16.5748-9.249q-.2017-.8473-.4476-1.65l16.5748,9.2491Q748.596,244.0463,748.7977,244.8938Z"/><path d="M749.1268,246.4684,732.552,237.22q-.1458-.8054-.3291-1.5747l16.5748,9.249Q748.9809,245.663,749.1268,246.4684Z"/><path d="M749.3676,248.0154l-16.5749-9.2489q-.1035-.7892-.2407-1.547l16.5748,9.2489Q749.2641,247.2262,749.3676,248.0154Z"/><path d="M749.535,249.57l-16.5748-9.249q-.0676-.7916-.1675-1.554l16.5749,9.2489Q749.4673,248.778,749.535,249.57Z"/><path d="M749.6334,251.0968l-16.5748-9.2489q-.0343-.7766-.0984-1.5274l16.5748,9.249Q749.5991,250.32,749.6334,251.0968Z"/><path d="M749.6716,252.66l-16.5749-9.249q-.0041-.794-.0381-1.5632l16.5748,9.2489Q749.6675,251.866,749.6716,252.66Z"/><path d="M749.672,252.7531l-16.575-9.2489,0-.0931,16.5749,9.249Z"/></g></g><g class="cls-11"><g class="cls-35"><path class="cls-31" d="M739.9393,232.1136a16.1691,16.1691,0,0,0-2.6643-1.184L720.7,221.6807a16.1781,16.1781,0,0,1,2.6644,1.1839Z"/><path class="cls-30" d="M737.275,230.93a17.2476,17.2476,0,0,0-2.3043-.6095l-16.5748-9.249a17.25,17.25,0,0,1,2.3042.61Z"/><path class="cls-29" d="M734.9707,230.32a18.6421,18.6421,0,0,0-1.8864-.2631L716.51,220.808a18.646,18.646,0,0,1,1.8864.2631Z"/><path class="cls-28" d="M733.0843,230.057q-.8317-.0736-1.6933-.0774l-16.5749-9.249q.8613.0036,1.6934.0774Z"/><path class="cls-27" d="M731.391,229.98q-.7629-.0034-1.5479.0489l-16.575-9.249q.7849-.0524,1.548-.0489Z"/><path class="cls-26" d="M729.8431,230.0285q-.7139.0476-1.4448.1416l-16.5748-9.2489q.7308-.0942,1.4446-.1417Z"/><path class="cls-25" d="M728.3983,230.17q-.705.0908-1.4251.2254l-16.5748-9.249q.72-.1345,1.4251-.2253Z"/><path class="cls-24" d="M726.9732,230.3955q-.6631.124-1.3387.2856L709.06,221.4322q.6753-.1617,1.3387-.2857Z"/><path class="cls-23" d="M725.6345,230.6811q-.6662.16-1.3434.3558l-16.5749-9.2489q.6773-.1963,1.3435-.3558Z"/><path class="cls-22" d="M724.2911,231.0369q-.6474.1878-1.3042.41l-16.5748-9.2491q.6567-.2215,1.3041-.4094Z"/><path class="cls-21" d="M722.9869,231.4465q-.6516.22-1.312.4739L705.1,222.6714q.66-.2539,1.3121-.474Z"/><path class="cls-36" d="M721.6749,231.92q-.6463.2485-1.3007.53l-16.5749-9.2489q.6543-.2812,1.3007-.53Z"/><path class="cls-37" d="M720.3742,232.45q-.6542.2814-1.316.5955l-16.5749-9.249q.6617-.3143,1.316-.5954Z"/><path class="cls-38" d="M719.0582,233.0455q-.662.3142-1.3307.6619l-16.5748-9.2489q.6687-.3477,1.3306-.662Z"/><path class="cls-39" d="M717.7275,233.7074q-.5143.2674-1.0326.5548l-16.5749-9.249q.5182-.2874,1.0327-.5547Z"/></g></g><polygon class="cls-40" points="716.695 234.262 684.15 252.304 667.575 243.055 700.12 225.013 716.695 234.262"/><polygon class="cls-40" points="684.15 252.304 658.489 266.53 641.914 257.281 667.575 243.055 684.15 252.304"/><g class="cls-11"><g class="cls-41"><path class="cls-39" d="M658.4893,266.53l-21.0809,11.6869-16.5749-9.2491,21.081-11.6867Z"/></g></g><polygon class="cls-42" points="474.915 922.969 458.34 913.72 456.813 396.669 473.388 405.918 474.915 922.969"/><polygon class="cls-40" points="637.408 278.217 600.179 298.856 583.604 289.607 620.833 268.968 637.408 278.217"/><g class="cls-11"><g class="cls-43"><path class="cls-39" d="M600.1788,298.856,565.6819,317.98l-16.5749-9.249,34.4969-19.1243Z"/></g></g><polygon class="cls-40" points="565.682 317.98 539.098 332.718 522.523 323.469 549.107 308.731 565.682 317.98"/><polygon class="cls-40" points="539.098 332.718 506.148 350.985 489.573 341.736 522.523 323.469 539.098 332.718"/><g class="cls-11"><g class="cls-44"><path class="cls-39" d="M506.1476,350.9848q-.16.0885-.3192.1787l-16.5749-9.249q.1593-.09.3192-.1787Z"/><path class="cls-45" d="M505.8284,351.1635q-.691.39-1.3749.8084l-16.5748-9.249q.6837-.4179,1.3748-.8084Z"/><path class="cls-46" d="M504.4535,351.9719q-.6932.4237-1.3787.875L486.5,343.5978q.6853-.4509,1.3788-.8749Z"/><path class="cls-47" d="M503.0748,352.8469q-.7117.4683-1.4143.9653l-16.5749-9.249q.7026-.4968,1.4143-.9654Z"/><path class="cls-48" d="M501.6605,353.8122q-.7177.5076-1.4254,1.0439l-16.5748-9.249q.7074-.5361,1.4253-1.0439Z"/><path class="cls-49" d="M500.2351,354.8561q-.73.5533-1.449,1.1361l-16.5749-9.249q.7186-.5823,1.4491-1.1361Z"/><path class="cls-50" d="M498.7861,355.9922q-.729.591-1.4453,1.2108l-16.5749-9.249q.7161-.62,1.4453-1.2108Z"/><path class="cls-51" d="M497.3408,357.203q-.7222.6249-1.4308,1.2777l-16.5749-9.249q.7084-.6525,1.4308-1.2777Z"/><path class="cls-52" d="M495.91,358.4807q-.6946.64-1.3753,1.3056l-16.5748-9.249q.6805-.6653,1.3752-1.3056Z"/><path class="cls-53" d="M494.5347,359.7863q-.676.661-1.3377,1.3461l-16.5748-9.2489q.6613-.6851,1.3377-1.3462Z"/><path class="cls-54" d="M493.197,361.1324q-.642.6651-1.27,1.3515l-16.5748-9.249q.6276-.6862,1.27-1.3514Z"/><path class="cls-55" d="M491.9271,362.4839q-.6379.6977-1.26,1.4161l-16.5749-9.249q.6223-.7182,1.26-1.4161Z"/><path class="cls-56" d="M490.6668,363.9q-.6456.7455-1.2739,1.5123l-16.5749-9.2489q.6281-.7667,1.2739-1.5124Z"/><path class="cls-57" d="M489.3929,365.4123q-.7356.8979-1.4458,1.8229l-16.5749-9.2489q.71-.9249,1.4458-1.8229Z"/><path class="cls-58" d="M487.9471,367.2352q-1.066,1.3884-2.0715,2.8325l-16.5749-9.249q1.0048-1.4428,2.0715-2.8324Z"/><path class="cls-59" d="M485.8756,370.0677q-1.2448,1.7876-2.3894,3.6483l-16.5748-9.2489q1.1431-1.8585,2.3893-3.6484Z"/><path class="cls-58" d="M483.4862,373.716q-.8756,1.4236-1.688,2.8825l-16.5749-9.249q.8118-1.4579,1.6881-2.8824Z"/><path class="cls-57" d="M481.7982,376.5985q-.5369.9642-1.0446,1.9416l-16.5749-9.249q.5076-.9769,1.0446-1.9416Z"/><path class="cls-56" d="M480.7536,378.54q-.4283.8243-.8351,1.6569l-16.5749-9.2491q.4068-.8321.8351-1.6568Z"/><path class="cls-55" d="M479.9185,380.197q-.38.7781-.7409,1.5621l-16.5748-9.249q.3606-.7839.7408-1.5622Z"/><path class="cls-54" d="M479.1776,381.7591q-.3493.759-.68,1.5228l-16.5748-9.2489q.33-.7638.68-1.5229Z"/><path class="cls-53" d="M478.4977,383.2819q-.3356.7752-.6512,1.5546l-16.5749-9.2489q.3158-.7794.6513-1.5546Z"/><path class="cls-52" d="M477.8465,384.8365q-.3184.7861-.6165,1.5755l-16.5748-9.2489q.2978-.7893.6164-1.5755Z"/><path class="cls-51" d="M477.23,386.412q-.3071.8139-.5917,1.6305l-16.5748-9.249q.2846-.8165.5917-1.63Z"/><path class="cls-50" d="M476.6383,388.0425q-.29.8314-.5558,1.6647l-16.5749-9.249q.2659-.8331.5559-1.6647Z"/><path class="cls-49" d="M476.0825,389.7072q-.2708.8481-.5161,1.6968l-16.5748-9.2489q.2452-.8487.516-1.6969Z"/><path class="cls-48" d="M475.5664,391.404q-.2469.855-.4677,1.7095l-16.5748-9.249q.2205-.8544.4677-1.7094Z"/><path class="cls-47" d="M475.0987,393.1135q-.2181.8451-.41,1.6891l-16.5748-9.249q.1917-.8437.41-1.6891Z"/><path class="cls-46" d="M474.6888,394.8026q-.1912.8421-.3556,1.6816l-16.5749-9.2489q.1642-.84.3557-1.6817Z"/><path class="cls-45" d="M474.3332,396.4842q-.16.8179-.294,1.6328l-16.5748-9.2489q.1336-.8148.2939-1.6328Z"/><path class="cls-39" d="M474.0392,398.117q-.1335.8134-.24,1.6226l-16.5748-9.249q.1068-.8089.24-1.6225Z"/><path class="cls-38" d="M473.7987,399.74q-.1047.7938-.1833,1.5828l-16.575-9.249q.0784-.7887.1835-1.5828Z"/><path class="cls-37" d="M473.6154,401.3224q-.0786.789-.13,1.5719L456.91,393.6454q.0516-.7829.13-1.572Z"/><path class="cls-36" d="M473.4851,402.8943q-.0519.7857-.0762,1.5644l-16.5748-9.249q.0242-.7786.0761-1.5643Z"/><path class="cls-21" d="M473.4089,404.4587q-.0228.7332-.0206,1.4593l-16.575-9.249q-.002-.726.0208-1.4593Z"/></g></g><path class="cls-3" d="M506.1476,350.9848l32.95-18.267,26.584-14.7375,34.4969-19.1243,37.23-20.6392L658.4893,266.53,684.15,252.3043l32.545-18.0421c18.153-10.0638,32.9163-1.7869,32.9761,18.4908l1.5266,517.0507c.06,20.27-14.6063,44.8613-32.76,54.925L507.8909,941.4514c-18.1532,10.0637-32.9163,1.7868-32.976-18.4827L473.3883,405.918C473.3283,385.64,487.9945,361.0485,506.1476,350.9848Z"/><polygon class="cls-60" points="480.054 953.116 480.053 953.116 480.054 953.116 480.054 953.116"/><path class="cls-60" d="M474.7117,368.3382c-.0934.1867-.183.375-.2753.5621.0924-.1873.1821-.3757.2756-.5626Z"/><path class="cls-60" d="M478.8993,360.7925l0,.0008c.05-.0813.098-.1637.1472-.2453C478.9969,360.63,478.9489,360.7116,478.8993,360.7925Z"/><path class="cls-60" d="M480.8645,357.7113c-.0184.0277-.0372.0549-.056.0823.0191-.0287.039-.0567.058-.0853Z"/><path class="cls-60" d="M489.4384,346.6444l0,0c.2575-.2847.5193-.5626.78-.843C489.957,346.0813,489.6958,346.36,489.4384,346.6444Z"/><path class="cls-60" d="M462.4451,468.1585h0c.0863-.1247.1931-.2457.2895-.3688C462.6381,467.9128,462.5313,468.0339,462.4451,468.1585Z"/><path class="cls-60" d="M461.6353,469.7365h0c.02-.0578.0519-.1161.0739-.1741C461.6871,469.6205,461.655,469.6787,461.6353,469.7365Z"/><path class="cls-60" d="M466.1768,394.5755c-.081.544-.1584,1.0875-.2263,1.63v.0007c.0679-.5424.1454-1.0863.2265-1.6307Z"/><path class="cls-60" d="M494.8413,341.1816c-.311.2857-.6155.5839-.9232.8758.3078-.2919.6123-.59.9232-.8759Z"/><path class="cls-60" d="M461.632,469.7464c-.029.0856-.0412.1693-.0654.2545.0242-.0853.0364-.169.0654-.2546Z"/><path class="cls-60" d="M444.8033,461.7341c.003-.0472.007-.0947.0117-.1423s.01-.095.0166-.1429.0132-.0947.021-.1423l.0063-.035.002-.0108c.0056-.0324.011-.0646.0174-.097.0093-.0477.0195-.0956.03-.1436s.0225-.0959.0349-.144.0253-.0952.0391-.1429.028-.0943.043-.1416c.01-.0314.0208-.0628.0315-.0943l.0034-.01.0117-.0351q.0232-.0665.0483-.1333t.0522-.1334q.0259-.0639.0536-.1279c.0183-.0424.0374-.0849.0569-.1274q.0309-.0672.0637-.1343c.0135-.0276.0278-.0554.0419-.083l.0056-.0112.0237-.047q.0429-.0826.0889-.165.0648-.1162.1354-.2325c.06-.0988.1267-.197.1934-.2952.0117-.0174.0219-.0347.0339-.052.0086-.0125.0159-.0252.0247-.0377q.0984-.14.2052-.2791.0707-.0915.1449-.1822.0717-.0877.1472-.1747c.0185-.0213.038-.0425.0569-.0639l.0159-.0179c.025-.028.05-.0562.075-.0841q.0791-.0865.1617-.172.0846-.0874.1728-.1737.097-.0951.1988-.1886c.0323-.03.0663-.0591.0994-.0886l.0292-.0263c.029-.0257.0571-.0517.0865-.0771q.1144-.099.234-.1959.1245-.1008.2545-.1993.1321-.1.27-.1976l.0014-.001.0011-.0007q.1392-.0984.2843-.1938.1488-.0979.3042-.1929.16-.0976.3267-.1918l.0773-.0433-.18-61.082q-.0032-1.0069.0286-2.0234c.0031-.0977.0109-.1967.0144-.2946.01-.2759.0267-.5534.04-.83.0172-.3477.0277-.6938.0507-1.0428.0119-.1788.0314-.3591.0446-.5382.0225-.3023.0486-.605.0753-.9082.0215-.2429.0361-.4845.06-.728.027-.272.0643-.5458.0949-.8184.0336-.3019.0671-.6036.105-.9062.0195-.1565.0337-.312.0543-.4686.051-.3861.1144-.7739.172-1.1609.0411-.2757.0782-.5507.1226-.8269.0132-.0824.023-.1643.0365-.2466.1017-.6193.217-1.24.3351-1.8612.0223-.1176.0405-.2346.0634-.3522l.008-.0448q.2255-1.1511.4876-2.3052c.01-.0455.0227-.091.0331-.1364.0569-.2487.1217-.4974.181-.7461.1147-.4795.2253-.9592.3492-1.4389.0268-.1037.0579-.2074.0851-.3111.0839-.32.1747-.64.2628-.96.0978-.3556.1891-.7114.2919-1.0667.0468-.162.1-.3238.1476-.4857.0979-.3311.2-.6616.3018-.9925.085-.2757.1637-.5517.2515-.8272.0733-.23.1546-.4587.23-.6883q.1627-.4956.3308-.9906c.0685-.2008.1314-.4021.2013-.6028.1136-.3257.2364-.65.3539-.9753.1032-.2851.2044-.57.31-.8553.0438-.1177.084-.236.1283-.3536.1973-.5231.405-1.044.6122-1.5651.0651-.1635.1262-.3277.1922-.4909.0124-.0308.0237-.0618.0361-.0925q.42-1.0369.8663-2.0676c.0295-.0683.0614-.1359.091-.2041.0927-.2128.19-.4239.2839-.6362.1777-.4.3523-.8013.5356-1.2.0792-.1723.1638-.3427.2441-.5146q.2007-.43.4065-.857c.1167-.2435.2284-.4888.347-.7315.1332-.2723.2736-.5415.4094-.8128.1411-.2822.2818-.5645.4257-.8455.0753-.1471.1468-.2958.2228-.4424.14-.27.29-.5354.4322-.8043.247-.4661.4946-.9316.7489-1.3939.0776-.1409.15-.2844.2284-.4249.0815-.1465.1719-.2877.2541-.4338q.91-1.6161,1.8745-3.1988c.0448-.073.085-.1488.13-.2217.0166-.0269.0344-.053.051-.08q.7764-1.2573,1.5872-2.49c.06-.0917.124-.18.1847-.2719q.7247-1.0914,1.4738-2.1619c.024-.0341.0466-.0694.0706-.1034.0735-.1043.1523-.2033.2261-.3072q.9093-1.28,1.8563-2.5215c.1022-.1343.1981-.275.3009-.4086.1327-.1728.2711-.339.405-.5106q.4481-.5743.9038-1.1391c.1553-.193.3058-.3917.4625-.5831.143-.1748.2912-.3432.4354-.5168q.3831-.4611.7709-.9154c.1521-.1783.3-.3617.4536-.5386.1886-.2175.3822-.4278.5724-.6429.2181-.2468.436-.4935.6561-.7372.1121-.1239.2214-.252.334-.3751.2681-.2931.542-.5769.8131-.8653.2023-.2153.4029-.4333.6068-.6458.0625-.0651.1232-.1328.1858-.1977.4036-.4179.8139-.8245,1.2239-1.2316.1315-.1306.26-.2657.3927-.3951.0175-.0173.0347-.0355.0524-.0528q.8508-.8321,1.7187-1.6316c.0242-.0223.0489-.0431.0731-.0654.1761-.1618.3558-.316.5329-.4758.39-.3517.7787-.7064,1.1733-1.0478.0638-.0551.129-.1067.1929-.1615.2322-.1995.4672-.3915.7009-.5873.2985-.25.5944-.5061.8953-.75.11-.089.2218-.1721.332-.26.254-.2036.51-.4015.7658-.6.2351-.1831.4676-.3729.7041-.5521.1683-.1275.34-.2468.5086-.3724q.3674-.2731.737-.54c.17-.1229.3382-.252.509-.3728.2562-.1811.5158-.3513.7733-.5279.2282-.1563.4554-.3146.6846-.4672.0986-.0657.1957-.1361.2944-.2011.4642-.3054.9319-.5984,1.4-.8885.0846-.0524.1681-.1087.2528-.1606l.043-.0272q.8436-.5157,1.696-.9974.1967-.1112.3937-.22L698.73,207.4817q.6384-.3538,1.2724-.6834c.1712-.0891.34-.168.5112-.2543q.3219-.1629.6422-.32c.1619-.0791.3253-.1654.4866-.2421.2991-.142.5951-.27.8924-.4037.1781-.08.3572-.1646.5346-.2419.0659-.0287.1325-.0614.1983-.09q.8086-.3477,1.6081-.6548c.0188-.0072.0373-.013.056-.02.1-.0381.1974-.07.2965-.1072.4242-.1587.8481-.3161,1.268-.4578.0964-.0327.1911-.0586.2873-.09.2085-.0686.415-.1308.6223-.1953.2377-.0739.4773-.1555.7135-.224.17-.0492.3365-.0873.5056-.1337q.35-.0961.6978-.1848c.1515-.0383.3052-.0846.4561-.1207.2335-.0559.4628-.0975.6947-.1481.234-.0509.4685-.1039.7009-.1493.0953-.0187.1924-.0436.2874-.0613.2709-.05.5363-.084.8049-.127.2549-.041.5112-.0865.7641-.1207.0648-.0087.1313-.0226.196-.0309.2817-.0363.5572-.0542.8362-.0822.2682-.0269.5383-.06.8038-.079.0495-.0036.1006-.0115.15-.0147.202-.0137.3977-.01.5981-.0189.3939-.018.7876-.0359,1.1753-.0369.07,0,.1433-.007.2134-.0067.1618.0008.3169.0183.4775.0221.4389.01.8746.028,1.3048.06.11.0084.225.0058.3347.0156.2426.0214.4809.0533.7206.0817.1086.0129.2185.0228.3264.0371.4468.0592.8895.1275,1.3256.211.0461.0088.0905.0219.1366.031.21.0415.4142.0941.6215.1412.3195.0726.639.1453.9523.2312.2164.0593.4281.1279.6416.1935.2062.0635.4168.1178.62.1872.0746.0254.1447.0594.2189.0856.3817.1347.7549.2853,1.126.4406.178.0745.36.1418.535.2209.54.2437,1.0707.5052,1.5864.7929l16.5749,9.249c-.1193-.0666-.2462-.12-.367-.1834,8.2344,4.3843,13.4078,14.2355,13.45,28.3318l.1342,45.4676,1.6595-.92c1.2456-.6906,2.2622-.1342,2.2663,1.2415l.1575,53.3611a4.74,4.74,0,0,1-2.2515,3.7531l-1.66.92.0611,20.7078,1.66-.92c1.2456-.69,2.2622-.1328,2.2663,1.25l.2492,84.4242a4.74,4.74,0,0,1-2.2515,3.7545l-1.66.92.9056,306.7091c.08,27.0461-18.7219,59.423-41.9952,72.3253L509.2567,950.567c-11.473,6.36-21.8846,6.79-29.5087,2.3613.1033.0606.2018.13.3064.188l-.0008,0L463.48,943.8673c-.4508-.2515-.8886-.5253-1.32-.81-.1269-.0838-.2512-.1717-.3762-.2582q-.4776-.33-.9382-.6885c-.1177-.0915-.2365-.1811-.3526-.2753-.4039-.3277-.8007-.6672-1.1838-1.0272-.0271-.0253-.0523-.0534-.0793-.079-.3559-.3377-.7-.6921-1.0376-1.0576-.1085-.1176-.2144-.2388-.3209-.3592q-.399-.4512-.779-.9291c-.0953-.12-.1922-.2372-.2858-.36-.322-.4207-.6364-.8517-.9365-1.3015l-.0223-.0358c-.0754-.1135-.1439-.2358-.218-.3512-.2475-.3855-.4914-.7756-.7228-1.1815-.11-.1921-.211-.3944-.3169-.591-.1455-.27-.2968-.533-.4353-.8115-.0441-.0888-.084-.1825-.1274-.2721-.0652-.1346-.128-.2722-.1916-.4088q-.3038-.6522-.5827-1.3332c-.0491-.12-.1-.2373-.1484-.3586-.0222-.056-.0467-.1091-.0684-.1654-.0621-.16-.1114-.3333-.1713-.4952-.19-.5126-.3731-1.0321-.5421-1.5673-.0318-.1008-.0709-.1938-.1021-.2954-.06-.1951-.1061-.4038-.1629-.6018-.1185-.413-.2336-.8294-.34-1.255-.0358-.1434-.08-.278-.1144-.4227-.049-.2061-.086-.4241-.1322-.6331-.0767-.3478-.1513-.6974-.22-1.0531-.03-.157-.0683-.3063-.097-.4647-.0429-.237-.0736-.4857-.1129-.7261-.0542-.3308-.1081-.6618-.1555-.9989-.02-.1433-.0471-.28-.066-.4246-.0388-.2964-.0641-.6049-.0976-.906-.034-.3055-.07-.6085-.099-.919-.01-.1071-.025-.2094-.0342-.3171-.0367-.43-.0583-.8723-.0845-1.3111-.0134-.2242-.0325-.4433-.0431-.67-.0023-.048-.0071-.0939-.0092-.142q-.0468-1.0657-.0528-2.1664l0-.1288-2.2248-395.6784-2.2845-1.2747a1.5566,1.5566,0,0,1-.35-.2769c-.0319-.0325-.0593-.07-.0888-.1055a1.6838,1.6838,0,0,1-.1164-.1383,1.919,1.919,0,0,1-.1206-.21l-.0037-.0083-.0033-.0076c-.0248-.0511-.0484-.1036-.07-.1585q-.03-.0781-.0559-.1614-.0232-.0761-.0423-.1565c-.0052-.0213-.0092-.0438-.0138-.0656l-.0039-.0188c-.0046-.0219-.01-.0431-.0138-.0655q-.0127-.0717-.0227-.1463-.0095-.0724-.0159-.1474-.006-.071-.0093-.1443c-.0021-.0486-.0033-.0978-.0036-.1479v-.0087l3.21,1.791h0l-3.21-1.791-.1617-54.7773c0-.0452,0-.0908.0019-.1364C444.7976,461.8318,444.8,461.7831,444.8033,461.7341ZM474.4364,368.9c-.1608.3263-.3229.6522-.48.98l0,.0012c.1571-.3283.32-.6544.48-.9812.0923-.1871.1819-.3754.2753-.5621l0,0C474.6185,368.5246,474.5288,368.713,474.4364,368.9Zm4.644-8.41c-.0117.0189-.0229.0383-.0344.0574-.0492.0816-.0974.164-.1472.2453l0-.0008c.05-.0809.0976-.163.1467-.2445.0115-.0192.0227-.0386.0346-.0577Zm1.7281-2.697c.0188-.0274.0376-.0546.056-.0823l.002-.003C480.8475,357.7369,480.8276,357.7649,480.8085,357.7936Zm1.517-2.2253,0,.0006c.0653-.0928.1333-.1828.1988-.2753C482.4573,355.3848,482.3906,355.4757,482.3255,355.5683Zm2.8606-3.8538c-.0966.124-.1917.25-.2875.3745.0963-.1247.1913-.251.2881-.3752Zm1.801-2.2381q-.4535.5457-.8988,1.1009l-.0008.001q.4476-.5557.9011-1.1037Zm.7694-.9135-.0011.0013c.2564-.3006.5158-.5969.7755-.8931C488.2717,347.9669,488.0125,348.2628,487.7565,348.5629Zm1.6815-1.9181,0,0c.2574-.2846.5186-.5631.7792-.8426C489.9573,346.0822,489.6955,346.36,489.438,346.6448Zm3.1708-3.323c-.4754.4719-.9482.9484-1.4152,1.4349l-.001.001c.4686-.4882.943-.9662,1.42-1.44Zm1.3093-1.2644c-.3077.2919-.6187.5775-.9231.8757h0c.3043-.2983.6154-.5839.9231-.8758s.6122-.59.9232-.8758h0C494.53,341.4672,494.2259,341.7655,493.9181,342.0574Zm4.7509-4.1589c-.2908.233-.5785.4737-.8665.7133.2888-.2388.5762-.4808.8673-.714Zm.7612-.5969.0006,0c.11-.0853.22-.1671.33-.2517C499.6509,337.1341,499.54,337.2162,499.43,337.3016Zm3.2381-2.3694q-.6465.4431-1.2871.904l0,0q.6414-.4631,1.2894-.9055Zm.68-.4643q.8466-.5643,1.7031-1.0949l.0015-.0011Q504.1959,333.9026,503.3485,334.4679ZM717.0891,215.7928c-.5922.2995-1.1858.6062-1.784.9379.6155-.3412,1.2262-.6562,1.8355-.9636Zm2.0217-.9655c-.3239.1458-.65.3018-.9756.4568.3848-.1836.7695-.3663,1.1514-.5365C719.228,214.7745,719.1694,214.8009,719.1108,214.8273Zm2.3972-1.0067c-.3721.1425-.7489.3052-1.1243.4616.409-.17.8192-.3438,1.2248-.4979C721.575,213.7962,721.5417,213.8077,721.508,213.8206Zm1.8509-.6549c-.2774.0914-.5584.1964-.8378.2953.33-.1165.66-.2357.9866-.3419C723.458,213.1348,723.4087,213.1493,723.3589,213.1657Zm1.8429-.5534c-.2046.0561-.4114.1206-.6171.181.28-.082.56-.1651.8374-.2394C725.3486,212.5737,725.2755,212.5919,725.2018,212.6123Zm1.8475-.4532c-.1483.0322-.2983.07-.447.1044.2766-.064.5534-.1292.8277-.1856C727.303,212.1053,727.1764,212.1313,727.0493,212.1591Zm2.5566-.4582c-.2528.0342-.5092.08-.7641.1206-.0884.0142-.1779.0315-.2665.0459.3488-.0589.699-.1215,1.0437-.1679Zm1.837-.1922c-.2666.0193-.5376.0523-.8068.0793-.0447.0045-.09.01-.1346.0147.3383-.0355.6776-.0738,1.0117-.0972C731.49,211.507,731.4666,211.507,731.4429,211.5087Zm5.301.14c-.1092-.0145-.22-.0243-.33-.0375-.1371-.0162-.2771-.0251-.4154-.0383.3073.0311.6148.0619.9174.1042C736.8579,211.6688,736.802,211.6562,736.7439,211.6484Zm1.461.2418c-.1572-.031-.3192-.051-.4776-.079.2669.047.5332.0954.796.1514C738.4175,211.9377,738.3123,211.9115,738.2049,211.89Zm1.5727.3722c-.1235-.0339-.25-.0606-.3753-.0911.2445.0624.4878.1273.7286.1977C740.0135,212.3327,739.8969,212.2951,739.7776,212.2624Zm1.4816.4665c-.0788-.0279-.16-.0513-.2394-.0779.1591.0541.3163.112.4737.1695C741.4148,212.7913,741.3387,212.7569,741.2592,212.7289Zm1.6611.6615c-.1123-.0507-.2279-.0956-.3426-.1415q.3067.132.608.2741C743.096,213.4812,743.0107,213.4311,742.92,213.39ZM507.8912,941.451,718.4388,824.7281c18.1535-10.0638,32.82-34.6558,32.76-54.9251l-1.5266-517.05c-.06-20.2776-14.823-28.5547-32.9766-18.4908L684.15,252.3046,658.49,266.53l-21.08,11.6863L600.18,298.8559,565.6827,317.98l-26.5848,14.738-32.95,18.2668C487.9956,361.0485,473.33,385.64,473.3893,405.918l1.5266,517.05C474.9758,943.2371,489.7389,951.5142,507.8912,941.451Zm-29.5331,10.5969c.1252.0866.25.1746.3763.2583.0844.0558.1732.1037.2582.1586-.2288-.1464-.4564-.2947-.68-.45C478.3281,952.0253,478.3427,952.0372,478.3581,952.0479Zm-1.2912-.964c.1165.0945.2358.1844.3538.2763.0569.0441.1165.0837.1737.1273-.2171-.1651-.4335-.3314-.6449-.5055C476.9894,951.0148,477.0268,951.0514,477.0669,951.0839Zm-1.26-1.1033c.026.0246.05.0516.0763.0761.1249.1173.2584.2214.3858.3347-.2046-.1834-.4091-.3671-.608-.5594C475.7106,949.88,475.7567,949.9331,475.8068,949.9806ZM474.766,948.92c.0823.0893.17.17.2535.2583-.19-.1993-.38-.3981-.5639-.6058C474.5586,948.6889,474.6611,948.806,474.766,948.92Zm-1.3847-1.6467c.0933.1219.19.239.285.3584.06.0749.123.1447.1833.2186-.1787-.219-.3584-.4369-.5309-.6644C473.34,947.2141,473.36,947.2449,473.3813,947.2731Zm.1691-576.5369,0-.0007c-.1381.2956-.27.5933-.4047.89C473.2807,371.329,473.4125,371.0316,473.55,370.7362Zm-1.8432,4.2061c.2548-.62.5112-1.2388.7794-1.8547v0C472.2184,373.7034,471.9617,374.3226,471.7072,374.9423Zm.7144,570.9921c.1089.1639.2278.3147.34.4743-.1614-.2312-.3243-.46-.48-.6994C472.3278,945.785,472.3732,945.8615,472.4216,945.9344Zm-.9407-1.5326c.0883.1547.1842.3.2756.4505-.1319-.2211-.2652-.4406-.3922-.6679C471.403,944.2571,471.4405,944.3311,471.4809,944.4018Zm-.18-568.459q-.3807.9572-.7407,1.9186l0,.0014q.36-.9653.7434-1.9259Zm-.6993,566.7851c.0762.1572.1591.3063.2386.46-.1257-.2478-.2537-.493-.3737-.7477C470.5113,942.5362,470.5557,942.6329,470.6017,942.7279Zm-.9221-2.099c.0473.12.0983.2358.1468.3542.06.1467.1263.2858.1879.43-.1208-.2832-.2454-.5621-.3595-.8529C469.6634,940.583,469.6709,940.6067,469.68,940.6289Zm-.3152-559.3451,0,.0007q-.2485.7578-.4817,1.5167l0,.0016Q469.1165,382.0426,469.3644,381.2838Zm-.7324,556.2175.0091.0308-.0142-.05Zm-.051-553.7087,0,.0007c-.1527.5173-.2971,1.0349-.44,1.5525l0,.001C468.2835,384.8285,468.4281,384.3105,468.581,383.7926ZM468.0454,935.19c.0173.0783.0367.1545.0544.2325-.0247-.1086-.05-.2163-.0738-.3256C468.0327,935.1274,468.0386,935.159,468.0454,935.19Zm-.43-2.2431c.0137.0836.03.1649.0437.2481-.0187-.11-.0384-.219-.0565-.33C467.6075,932.892,467.6113,932.92,467.6158,932.9467Zm.2628-546.6412v0c-.1407.5364-.2706,1.0724-.3991,1.6085C467.6086,387.3783,467.738,386.842,467.8786,386.3055Zm-.582,544.31c.0086.0778.0195.1535.0284.2311-.0116-.1-.0247-.1983-.0358-.2987Zm-.2175-2.546c.0041.069.0106.1358.0149.2046-.0057-.0889-.0135-.1758-.0188-.265Zm.184-539.2668v0c-.09.3918-.166.7827-.25,1.1742C467.0968,389.5852,467.1734,389.1943,467.2631,388.8024Zm-.6317,3.0634c-.1179.6284-.2314,1.2564-.332,1.8827v.0009C466.4,393.1227,466.5137,392.4945,466.6314,391.8658Zm-.6809,4.3392c.0679-.542.1453-1.0855.2263-1.63v0c-.0811.5444-.1586,1.0883-.2265,1.6307Zm-.3354,3.3608c-.0375.5051-.0659,1.0081-.091,1.51.0254-.5026.0535-1.0058.0911-1.5112Zm.0015,65.8112a10.8059,10.8059,0,0,0-.9925.6217h0A10.81,10.81,0,0,1,465.6166,465.377Zm-3.1715,2.7815c.0862-.1246.193-.2457.2893-.3687s.1826-.248.29-.3687h0c-.1069.1207-.193.2457-.2894.3686s-.2032.2441-.2895.3688Zm-.12.196a6.7359,6.7359,0,0,0-.3557.5963v0A6.9141,6.9141,0,0,1,462.3251,468.3545Zm-.69,1.382c.02-.0578.0518-.116.0738-.174-.022.058-.0542.1163-.0739.1741Zm-.0033.01h0c-.029.0856-.0412.1693-.0654.2546a5.12,5.12,0,0,0-.1309.509h0a5.1009,5.1009,0,0,1,.1309-.5091C461.5908,469.9157,461.603,469.832,461.632,469.7464Zm-.1012,56.26-.1617-54.741a4.3507,4.3507,0,0,1,.0646-.7452,4.3507,4.3507,0,0,0-.0646.7452Z"/><path class="cls-60" d="M505.0516,333.373q-.8564.53-1.7031,1.0949.8475-.5647,1.7046-1.096Z"/><path class="cls-60" d="M499.4308,337.3012l-.0006,0c.11-.0854.2207-.1675.3307-.2521C499.6511,337.1341,499.54,337.2159,499.4308,337.3012Z"/><path class="cls-60" d="M473.55,370.7362c-.1379.2954-.27.5928-.4043.8892.135-.2966.2666-.5943.4047-.89Z"/><path class="cls-60" d="M472.4866,373.0876c-.2682.6159-.5246,1.2351-.7794,1.8547.2545-.62.5112-1.2389.7794-1.8549Z"/><polygon class="cls-61" points="286.018 345.323 276.697 387.436 259.925 378.077 269.246 335.964 286.018 345.323"/><path class="cls-62" d="M226.6173,296.8063c.0048-.1545.017-.311.0227-.4658.0124-.327.0313-.6556.0479-.9838.02-.3891.0309-.7761.0568-1.1667.02-.2981.0512-.599.0745-.8979.0269-.3472.0546-.6942.0862-1.0424.021-.2306.0343-.4595.0572-.6906.05-.4981.1149-.9994.174-1.4994.0338-.2879.0629-.5747.1-.8632.0123-.0959.0206-.191.0333-.287q.179-1.3546.4028-2.7173c.0032-.0195.0074-.0391.0106-.0586.0219-.1336.0495-.268.0723-.4016.1282-.7568.2606-1.5143.4092-2.2738.0268-.1368.0595-.2742.0869-.411.0723-.3612.1525-.7229.2294-1.0845.0939-.4422.18-.8835.2805-1.3263.0559-.2458.1212-.4923.1792-.7383.0928-.3946.1894-.789.2873-1.1838.0755-.304.1427-.6074.2212-.9115.0946-.3661.2018-.7326.3007-1.0989.1066-.395.2125-.79.3241-1.1848.0553-.1956.1041-.3911.1606-.5867.151-.5225.3169-1.0446.4765-1.567.1024-.3348.2-.67.3056-1.0045.03-.0955.0566-.191.0871-.2864q.4467-1.4.934-2.7971l.0127-.035c.0284-.0814.06-.1624.0885-.2437.2906-.8271.5883-1.6535.9-2.4786.0493-.1306.1032-.2606.1531-.3911.1177-.3087.241-.6163.3617-.9245.1738-.4445.3419-.89.5216-1.3334.115-.2835.2384-.5655.3557-.8487q.2125-.5133.4295-1.0253c.1066-.2509.2073-.5029.3156-.7534.2165-.5.4445-.9979.6681-1.4965.12-.2662.2353-.5332.3567-.799.0431-.0941.0831-.1889.1264-.2829q.603-1.31,1.2384-2.6116c.0181-.0372.0377-.074.056-.1112.1217-.2485.2507-.4943.374-.7423.3328-.6686.6637-1.3378,1.0089-2.0021.0544-.1046.1131-.2074.1678-.3119.2849-.5445.5812-1.084.8743-1.6252.2361-.4362.4631-.8761.7045-1.31.0441-.0792.0931-.156.1373-.235q1.1761-2.1041,2.4345-4.1666c.0708-.1164.1348-.2363.2059-.3525.2137-.3486.4393-.69.6562-1.0367.3529-.564.7057-1.1273,1.0671-1.6858.322-.4978.6508-.99.98-1.4835.3657-.5487.732-1.0966,1.1058-1.6394.1245-.1811.2432-.3665.3687-.5469.2993-.43.6079-.8524.912-1.2784.2084-.2919.4141-.5857.6248-.8757q1-1.377,2.0314-2.7264c.0171-.0223.0351-.0436.0522-.0659q1.1527-1.4994,2.3464-2.9579c.0356-.0437.07-.0891.1053-.1328.591-.7212,1.1936-1.43,1.7986-2.1349.1182-.1377.2327-.28.3515-.4171l.0222-.0264q1.0745-1.2407,2.1772-2.4463c.0363-.04.0739-.0777.11-.1174.2243-.2444.4539-.481.68-.7232.4658-.4993.9291-1.0021,1.4017-1.4914.0887-.0919.18-.1795.2693-.271.32-.3295.6457-.6505.969-.9752.356-.3576.7076-.7223,1.0671-1.0739.1331-.13.27-.2536.4034-.3829.3511-.34.7059-.6725,1.06-1.0067.3048-.2873.605-.5829.9122-.866.1735-.16.3513-.3108.5254-.4691.3821-.3474.7669-.6886,1.1525-1.0292.2667-.2356.529-.48.7974-.7122.21-.1814.4242-.3525.6349-.5318q.58-.4937,1.1648-.9758c.2358-.1947.4676-.3981.7046-.59.2554-.2071.5161-.402.7729-.6059q.57-.4529,1.1434-.8966c.1977-.1522.3922-.3126.5906-.463.3224-.2443.65-.4743.9744-.7135.3549-.2619.709-.5252,1.0661-.7809.145-.1038.2874-.2142.4326-.3169.4366-.3086.8786-.6,1.3183-.9.3-.2041.5976-.4139.8989-.6136.0778-.0516.1544-.1074.2325-.1587q1.19-.7827,2.3931-1.5185l.02-.0119c.06-.0368.1212-.07.1813-.1068.7243-.44,1.4514-.87,2.1827-1.2834q.2757-.1557.5521-.3091l.0015-.0008h0l119.7629-66.3938h0l.0051-.0028q.8965-.4968,1.7863-.9595c.2267-.1179.4506-.2221.6766-.3366q.4606-.2334.9191-.4572c.237-.1159.4762-.2423.7125-.3544.38-.18.7556-.3418,1.1334-.5127.2714-.1229.5437-.25.814-.3684.111-.0485.2234-.1036.3342-.1512q1.1325-.4868,2.2516-.917l.0124-.0046q1.14-.4381,2.2642-.8179c.0983-.0332.1945-.0594.2926-.0918.2723-.09.5414-.17.8122-.2551.3838-.1207.77-.2511,1.1513-.3616.1908-.0553.3775-.0975.5674-.15.3327-.0925.6631-.1786.9935-.2632.255-.0654.5136-.1426.7671-.2032.267-.0639.5286-.1107.7939-.1695.3315-.0734.6625-.1461.9913-.2115.1739-.0347.351-.0795.5241-.1119.311-.0582.6147-.0952.9232-.1462.3809-.0631.7624-.1281,1.14-.18.1336-.0186.2706-.0468.4036-.0639.3153-.0406.6222-.0585.9346-.0916.4065-.0431.8137-.0887,1.2154-.119.1178-.0089.239-.0272.3564-.035.2742-.0181.54-.0134.8115-.0256.4806-.0218.96-.0422,1.4335-.0455.1326-.0009.27-.0132.4019-.0127.5243.0021,1.0433.0171,1.5582.0418.0661.0031.1306.01.1965.0132.391.021.7812.0436,1.1665.0777.2453.0216.4851.0558.7281.0827.1836.02.3676.0391.55.0623.6646.085,1.3232.183,1.9692.3074.02.0039.04.01.06.0137.1764.0344.3464.0816.5214.1189.5374.1145,1.0719.2348,1.5956.3767.2558.0694.5044.1526.7568.2284.3346.1006.6746.1909,1.0032.3028.0836.0285.1619.0666.245.0958.5054.1774.9978.3778,1.4884.5821.24.1.4854.1888.7216.2949.7153.3218,1.4165.6682,2.0977,1.048l.0088.0044,16.7716,9.3588-.0009-.0005.0009.0006-.0088-.0045c-.6812-.38-1.3823-.7262-2.0977-1.0479-.2361-.1063-.482-.1951-.7217-.295-.49-.2042-.9829-.4048-1.4882-.5822-.41-.1439-.8286-.2724-1.2483-.3984-.2524-.0759-.501-.1592-.7568-.2285-.5236-.1419-1.0582-.2622-1.5956-.3767-.1749-.0373-.3449-.0845-.5214-.1189-.666-.13-1.3445-.2334-2.03-.3211-.1815-.0233-.365-.042-.5478-.0622-.6259-.0694-1.2571-.1265-1.8984-.1608-.0646-.0035-.1278-.01-.1925-.0129-.6449-.0309-1.3018-.0336-1.9614-.0291-.4725.0033-.9517.0237-1.4316.0453-.3892.0176-.7767.031-1.1707.0608-.401.03-.8076.076-1.2135.119-.4446.047-.8889.0931-1.339.1554-.3773.0523-.759.1175-1.14.18-.48.08-.9608.1612-1.4467.2579-.329.0655-.66.1383-.9916.2117q-.7759.1721-1.5609.3726c-.33.0846-.6609.1709-.9935.2633-.5693.1582-1.1427.3306-1.7187.5117-.2707.0852-.54.1649-.8122.2551-.8462.2806-1.6974.58-2.5568.91l-.01.0036-.0025.0011c-.8554.3288-1.7185.69-2.5859,1.068-.27.118-.5426.2456-.814.3684q-.9187.4158-1.8455.867-.459.2246-.92.4577c-.8171.4142-1.6364.8381-2.4621,1.2958l-.0053.0028L299.5123,215.2063c-.92.51-1.8334,1.0449-2.7423,1.5968-.0579.0352-.1166.0673-.1745.1026-.888.5424-1.7694,1.1083-2.6459,1.6892-.3017.2-.6.41-.9006.6148-.5858.3988-1.1706.8011-1.7508,1.2166-.356.2549-.7092.5174-1.063.7784-.5251.3874-1.0485.7789-1.5685,1.1794q-.5727.441-1.14.894-.7443.591-1.4812,1.1992-.583.4816-1.1617.9731-.7214.6141-1.4342,1.2457c-.3853.34-.77.6815-1.1518,1.0286-.4827.4389-.9609.8857-1.4377,1.3352-.3543.3341-.7093.6667-1.06,1.0066-.4953.48-.9847.9689-1.4733,1.46-.3221.3233-.6462.6432-.9653.9713-.565.5812-1.1222,1.1739-1.6775,1.7695-.2236.24-.4512.4742-.6733.7163q-1.17,1.2756-2.31,2.59c-.1235.1428-.2427.2907-.3657.4341q-.955,1.1136-1.89,2.2506-1.2031,1.4721-2.3673,2.9842l-.0338.0429-.0116.0154q-1.0266,1.3374-2.0173,2.7073c-.2121.2921-.4193.5883-.6293.8823q-.6445.9029-1.2751,1.8171c-.375.5448-.7429,1.0949-1.11,1.6455-.3279.4921-.6563.9839-.9776,1.4805-.3609.5577-.7133,1.12-1.0656,1.6836-.29.463-.58.9255-.8639,1.392q-1.2558,2.064-2.4352,4.168c-.2849.51-.5594,1.0234-.8371,1.5361-.2943.5435-.592,1.0854-.878,1.6323-.4015.7677-.7912,1.5395-1.1763,2.3131-.1234.2481-.2527.4943-.3743.743q-.732,1.4953-1.42,3.0038c-.1223.2676-.239.5366-.3592.8047q-.5025,1.12-.9817,2.2449-.2183.5141-.431,1.0291-.45,1.0854-.8745,2.1751c-.1212.31-.2455.62-.3638.93q-.5464,1.4319-1.0523,2.8682c-.0286.0815-.06.1626-.0886.2441q-.5436,1.5577-1.0338,3.1188c-.1061.3355-.2037.6711-.3063,1.0067-.2188.7162-.433,1.4323-.6354,2.1484-.1121.3968-.2185.7934-.3257,1.19q-.2711,1.0046-.5211,2.008-.147.5921-.2873,1.1833c-.162.6886-.3135,1.3763-.4595,2.0636-.077.3626-.1574.7254-.23,1.0875q-.27,1.3477-.4972,2.69c-.0222.131-.0491.2627-.0708.3935q-.2534,1.5371-.4468,3.0642c-.0372.2894-.0663.5771-.1.8659-.0861.73-.1644,1.4589-.2305,2.1849-.0318.35-.06.6991-.0867,1.048q-.08,1.0324-.1308,2.0576c-.0167.33-.0359.6609-.0482.99-.0363.9728-.06,1.9421-.0572,2.9039.0029,1.0073.0313,1.9939.0772,2.9657.0136.2876.0375.5661.0547.85.04.6631.086,1.3217.1462,1.9677.0337.3625.0757.7178.1156,1.0747.0623.5561.13,1.1074.2068,1.65.058.4085.122.8115.1883,1.2124q.1223.7389.2626,1.4609.1274.6523.27,1.29.1476.6624.3117,1.3087.1812.7172.3825,1.4143.1661.5777.3444,1.1431c.187.589.3878,1.1637.5957,1.7308.1309.3572.2563.72.3954,1.0686.0722.1808.1469.3586.2212.5369q.3612.8666.7557,1.6965c.0545.1143.1055.2321.1608.3452q.5,1.0211,1.05,1.9842c.01.0179.0191.0373.0293.0551q.5658.9843,1.1856,1.9034c.0812.1213.1678.2356.25.3552q.4722.6838.9718,1.3326c.1338.1732.27.343.4068.5122q.4719.5842.9677,1.1365c.127.1418.2513.2872.3806.4259.4548.4881.9209.9609,1.4032,1.4107.0669.0622.1374.1189.2048.18q.6336.5791,1.2978,1.1138c.16.1291.3233.2532.4859.3784q.5661.4358,1.1529.8395c.1625.1119.3234.2262.4882.3345.5456.3586,1.1.7036,1.67,1.0219l-16.7716-9.3588c-.57-.3184-1.1246-.6633-1.67-1.0219-.1648-.1083-.3257-.2225-.4883-.3346q-.5861-.4039-1.1517-.8387c-.1632-.1254-.3268-.25-.4876-.38q-.6642-.5355-1.2987-1.1145c-.0666-.061-.1366-.1172-.2028-.1788-.4825-.45-.9487-.9228-1.4037-1.4111-.1291-.1387-.2533-.2838-.38-.4256q-.4956-.5537-.9686-1.1375c-.1363-.1688-.2722-.338-.4055-.5107q-.5017-.6494-.974-1.3356c-.0818-.1187-.1679-.232-.2484-.3522-.0236-.0353-.0493-.0679-.0728-.1033q-.5795-.8721-1.1128-1.8c-.0127-.022-.0236-.0458-.0362-.068q-.5111-.8935-.98-1.8362c-.022-.0444-.0417-.0915-.0635-.1361-.0552-.1128-.106-.23-.16-.3439q-.3953-.8294-.7559-1.697c-.0745-.1787-.1493-.3569-.2216-.538-.0546-.1365-.1139-.2677-.1671-.4055-.0826-.2135-.1483-.4447-.2277-.6616-.2081-.5675-.4089-1.142-.596-1.7315-.0517-.1625-.1144-.3133-.1644-.4774-.0659-.2164-.1172-.4472-.18-.6663q-.2006-.6979-.3825-1.4142c-.053-.2094-.1171-.4076-.1676-.6194-.0534-.2241-.0934-.4611-.1439-.6879q-.1422-.6386-.27-1.2911c-.0436-.224-.0979-.4379-.139-.6643-.0471-.2605-.08-.534-.1238-.7978-.0662-.4-.13-.8025-.1879-1.2105-.03-.2067-.068-.4048-.0954-.6135-.0442-.3391-.0729-.6919-.1113-1.0361-.04-.3579-.0821-.7139-.116-1.0773-.0139-.15-.035-.2946-.048-.4459-.0423-.4963-.0666-1.0081-.0974-1.5143-.0175-.287-.0417-.568-.0553-.8581-.0033-.0687-.01-.1343-.0131-.2031q-.0567-1.2825-.0636-2.6061l-.0006-.155Q226.5793,298.0324,226.6173,296.8063Z"/><path class="cls-3" d="M299.5123,215.2063l119.7629-66.394c31.1158-17.25,56.4238-3.4015,56.525,30.93.1015,34.3371-25.0422,76.1548-56.1579,93.4046l-87.7508,48.6471-55.1949,65.6414,9.321-42.113c-24.4356,6.7238-42.5774-7.6551-42.6632-36.7174C243.253,274.2736,268.3966,232.456,299.5123,215.2063Z"/><path class="cls-63" d="M428.8848,189.8461c-7.6512,4.2416-13.8291,14.5227-13.8043,22.9584s6.2433,11.8446,13.8945,7.6029c7.6455-4.2384,13.829-14.5227,13.8041-22.9584S436.53,185.6076,428.8848,189.8461Z"/><path class="cls-63" d="M361.79,227.0421c-7.6512,4.2417-13.8291,14.5229-13.8043,22.9585s6.2433,11.8446,13.8945,7.6029c7.6455-4.2384,13.8291-14.5227,13.8042-22.9584S369.4349,222.8037,361.79,227.0421Z"/><ellipse class="cls-63" cx="294.7393" cy="279.519" rx="18.951" ry="11.1854" transform="translate(-98.9609 379.5303) rotate(-57.7351)"/><path class="cls-64" d="M90.0329,611.2508l0-.0215q-.0043-1.4832.0422-2.9808c.006-.1884.0206-.379.0276-.5676.0152-.4064.0389-.8146.0595-1.2223.0242-.4767.038-.9507.07-1.4292.0243-.3661.0629-.7354.0915-1.1025.0332-.4293.0677-.8585.1067-1.289.0258-.2825.042-.5627.07-.8456.0608-.61.1407-1.2243.213-1.8369.0422-.3575.078-.7135.1242-1.0717.015-.1174.025-.2339.0407-.3514q.22-1.6667.4954-3.3432c.0042-.0249.0093-.05.0135-.0749.0264-.16.06-.3209.0867-.4811.1583-.9345.322-1.87.5054-2.8078.0326-.1668.0728-.3341.106-.5008.09-.4481.1892-.8969.2845-1.3456.1152-.5418.2205-1.0827.3437-1.6254.0687-.3024.1493-.6055.22-.908q.172-.73.3546-1.46c.0926-.3727.175-.7449.2714-1.1179.1157-.4485.2471-.8974.3683-1.3461.1321-.49.2634-.9789.4018-1.4686.0677-.2391.127-.478.1961-.7171.1848-.6395.3882-1.279.5836-1.9184.1271-.4163.248-.8324.3795-1.2485.0369-.1165.0691-.2329.1063-.3494q.55-1.7219,1.1492-3.4414l.0151-.0417c.0373-.1067.0785-.2129.1159-.32.3557-1.0115.7195-2.0223,1.1-3.0312.06-.16.1262-.3182.187-.4777.1468-.3849.3006-.7686.4511-1.1529.2122-.543.4177-1.0869.6371-1.6287.1406-.347.2918-.6921.4351-1.0386q.2634-.636.5322-1.27c.1309-.3077.2542-.6167.387-.9238.2669-.6163.5476-1.23.8232-1.8439.1466-.3266.2886-.6543.4378-.98.0529-.1157.1022-.2323.1553-.348q.742-1.6123,1.5238-3.2135c.0227-.0461.047-.0917.07-.1378.1492-.3051.3078-.6071.4592-.9115.41-.823.8171-1.6467,1.2418-2.4642.0672-.1292.14-.2562.2072-.3851.3494-.6678.7128-1.3294,1.0721-1.9932.2915-.5383.5718-1.0813.87-1.6168.0842-.1513.1728-.3005.2575-.4515.18-.3206.3644-.6386.5464-.9581q.7626-1.3386,1.5512-2.664c.2114-.3554.4227-.7106.6369-1.0644.1429-.236.2808-.4748.425-.71.2635-.43.5421-.8515.81-1.2794.4333-.6923.8665-1.384,1.31-2.07.3966-.6129.8016-1.2194,1.2064-1.8269.4513-.677.9033-1.3531,1.3646-2.023.1523-.2213.2973-.4478.4506-.6681.3667-.5269.7447-1.0445,1.1174-1.5664.2582-.3618.5131-.7259.7742-1.0854q1.23-1.6932,2.4986-3.353c.0174-.0227.0357-.0444.0531-.067q1.4227-1.8515,2.8967-3.6518c.0443-.0542.0864-.1108.1308-.1649.7265-.8863,1.4669-1.7568,2.21-2.6235.147-.1712.2892-.3478.4368-.5183l.0256-.0306q1.3224-1.5267,2.679-3.01c.0449-.0493.0917-.0963.1367-.1455.2756-.3.5576-.5911.8352-.8886.573-.6145,1.1432-1.2332,1.7248-1.8353.11-.1135.2226-.2215.3326-.3347.3936-.4048.7935-.7993,1.1908-1.1984.4375-.4393.8693-.8873,1.3111-1.3194.1641-.16.3326-.3128.4973-.4722.4325-.4186.87-.8285,1.3062-1.24.3734-.352.7411-.714,1.1173-1.0606.2145-.1977.4346-.3847.65-.5806.47-.4271.9428-.8468,1.417-1.2655.3283-.29.6512-.5909.9816-.8769.26-.2251.5267-.4376.7883-.66q.7091-.6034,1.4239-1.1929c.2918-.2409.5785-.4926.8716-.73.3167-.2565.6394-.498.9576-.7508q.6978-.5539,1.3994-1.0971c.2437-.1878.4834-.3854.7281-.5709.3975-.3012.8015-.5848,1.2013-.88.4362-.3217.8713-.6452,1.31-.9594.1782-.1277.3536-.2635.5323-.39.5387-.3809,1.0844-.7411,1.6269-1.11.3672-.25.732-.5069,1.1009-.7515.0961-.0638.1908-.1324.287-.1959q1.464-.9635,2.9453-1.869l.027-.0159c.0688-.042.1384-.08.207-.1218.8962-.5444,1.7955-1.0766,2.7-1.5878q.34-.1923.6813-.3814l147.3557-81.6906.0181-.01c.6716-.3721,1.34-.73,2.0076-1.0783.0593-.031.1193-.0651.1786-.096.1018-.0528.2021-.0987.3038-.1511q1.1339-.5839,2.2585-1.1235c.0921-.0441.1855-.0943.2776-.138.04-.019.0792-.0351.1192-.054q1.23-.5818,2.4475-1.1073c.08-.0346.1608-.0746.24-.1088.1015-.0437.2013-.08.3026-.1232.8258-.351,1.6489-.69,2.4657-1.0042l.0054-.0022.0026-.0009c.84-.3229,1.6729-.62,2.5026-.904.0971-.0333.1958-.073.2928-.1058.0714-.0241.1413-.0429.2127-.0667q1.2113-.4049,2.4075-.7561c.0515-.0151.1041-.0339.1556-.0488.0886-.0258.1752-.0447.2637-.07.8545-.2439,1.7044-.472,2.5463-.6744.0179-.0043.0364-.01.0543-.0144l.0155-.0032c.863-.2065,1.7172-.385,2.5663-.548.0858-.0165.1739-.0393.26-.0554.05-.0092.0976-.0141.147-.0233q1.3416-.2473,2.6577-.4207c.0759-.01.1541-.0266.23-.0363.06-.0078.1191-.01.18-.0176q1.3608-.1707,2.6933-.2639c.07-.005.1415-.0161.2109-.0208.111-.0073.22-.01.33-.0162.29-.0172.579-.0307.8671-.0426.2418-.01.4834-.0195.7237-.0257.29-.0074.5774-.01.8648-.012.1564-.001.315-.0072.4709-.0065.0705,0,.1395.0045.21.0051.4192.0037.8351.0152,1.2495.0307.1431.0053.2878.0071.43.0137q.8261.0391,1.6384.1093c.0218.0019.0441.0024.0659.0044.0739.0065.1454.0179.2191.0248q.7782.073,1.543.1753.2571.0342.5126.0715.759.1108,1.505.2495c.0711.0132.1445.0219.2154.0356.0166.0032.0324.0079.049.0111.7461.1448,1.48.3155,2.2048.5027.1131.0291.2269.0568.3395.087q1.05.2817,2.0676.624c.06.02.1235.035.1836.0554.0992.0338.1955.0729.2942.1076q.4113.1441.8169.2985c.189.0717.3777.1433.5648.218.276.11.549.2257.8212.3426.1749.0752.3508.1487.524.2266.2962.1333.5884.2735.88.4148.144.07.29.1364.4327.2081q.6336.3185,1.2524.6618l.0264.0139,20.6357,11.515-.003-.0017.0029.0017-.0264-.0139q-.6182-.3442-1.2523-.6618c-.1431-.0719-.2893-.1386-.4335-.2085-.2911-.1411-.5828-.2811-.8785-.4141-.174-.0782-.3507-.1521-.5263-.2276-.2714-.1166-.5435-.2318-.8187-.3416-.1876-.0749-.377-.1467-.5664-.2185q-.4055-.1538-.8159-.2982c-.1587-.0557-.3181-.11-.4781-.1631q-1.0185-.3408-2.0675-.624c-.1126-.03-.2265-.0578-.3395-.0871-.7252-.187-1.4588-.3578-2.2049-.5026-.0875-.0169-.1766-.03-.2644-.0468q-.7454-.1392-1.5049-.2494-.2556-.0374-.5126-.0715-.7652-.1017-1.5431-.1752c-.0953-.0089-.1892-.021-.285-.0293q-.8121-.07-1.6383-.1093c-.1425-.0067-.2872-.0085-.43-.0137-.4144-.0156-.83-.0271-1.25-.0307-.2259-.0019-.4534,0-.6809.0014-.2874.0019-.5751.0046-.8648.012-.24.0061-.4819.0158-.7236.0257-.2881.0118-.5768.0253-.867.0426-.18.0107-.3607.0241-.5414.0369q-1.3326.0945-2.6933.264c-.136.0169-.2728.0358-.4093.0539q-1.3176.1758-2.6592.421c-.1338.0247-.2686.0522-.4027.0779-.85.1631-1.7053.3418-2.5694.5485-.0226.0053-.0454.0118-.0679.0172-.8425.2024-1.6929.4308-2.5478.6749-.14.04-.279.0776-.4192.1187q-1.1958.35-2.4075.756c-.1681.0561-.3369.1148-.5054.1725-.83.2846-1.6642.5816-2.5047.9048l-.0033.0013c-.8176.3144-1.6417.6539-2.4685,1.0053-.1809.0769-.3617.1534-.543.232q-1.2178.5283-2.4474,1.1073c-.1319.0624-.2646.1287-.3968.192q-1.1244.539-2.2585,1.1235c-.1609.0828-.3212.1628-.4824.2471-.6671.3487-1.3361.7062-2.0076,1.0784l-.0181.01h0L179.7713,507.8446h0c-1.1344.6289-2.261,1.2884-3.3817,1.9692-.0687.0417-.1383.08-.207.1217-1.0939.6681-2.18,1.3652-3.2593,2.0809-.3689.2445-.7338.5015-1.1009.7514-.7228.4919-1.4439.9882-2.16,1.5006-.4379.3136-.8724.6366-1.3076.9577-.6467.477-1.2915.9592-1.9319,1.4525q-.7043.5424-1.4023,1.0995-.9153.7269-1.8216,1.4748-.7182.5931-1.4308,1.1985-.8885.7566-1.7668,1.5344c-.4738.4185-.9469.8381-1.4165,1.2651-.5952.5412-1.185,1.0921-1.773,1.6466-.434.4093-.8687.8168-1.2989,1.233-.61.5909-1.2132,1.1937-1.8151,1.7984-.3959.3975-.7945.7908-1.1866,1.1941-.6943.7141-1.3789,1.4423-2.0612,2.1739-.2759.2959-.5567.5851-.83.8837q-1.4409,1.5708-2.8446,3.19c-.14.1616-.2748.3291-.4141.4915q-1.1926,1.3895-2.3589,2.8092-1.4843,1.816-2.9205,3.6817l-.034.0431-.0115.0151q-1.266,1.65-2.4881,3.3392c-.258.3551-.51.7152-.765,1.0726q-.7968,1.116-1.576,2.2458c-.46.6687-.9119,1.3438-1.3623,2.02-.405.6076-.81,1.2147-1.2069,1.8279-.4445.6868-.8786,1.38-1.3125,2.0735-.4128.66-.8279,1.3181-1.231,1.9834-.2155.356-.4281.7135-.6408,1.0709q-.7863,1.3209-1.5463,2.6554c-.1832.3219-.3694.6423-.55.9653-.3825.6821-.75,1.3708-1.1213,2.0576-.3613.6671-.7268,1.3324-1.0778,2.0037-.4922.94-.97,1.8864-1.4414,2.8342-.1539.3094-.315.6163-.4668.9264q-.901,1.8406-1.7475,3.6973c-.1494.3265-.2915.6545-.4383.9817q-.6192,1.38-1.2094,2.7656-.27.6345-.532,1.27-.5528,1.3348-1.0752,2.6742c-.1494.3816-.3022.7628-.4479,1.1448q-.6666,1.7471-1.2838,3.4994c-.0392.1112-.0822.2222-.121.3334q-.6681,1.9144-1.2706,3.8329c-.1307.413-.2506.826-.3769,1.2391-.2693.8813-.533,1.7628-.7822,2.6442-.1384.4894-.27.9788-.4016,1.4682q-.3325,1.2312-.6391,2.4616-.1814.73-.3544,1.46c-.2.8492-.3865,1.6974-.5665,2.5449-.0943.4439-.1929.8881-.2816,1.3315q-.3329,1.6619-.6131,3.3173c-.0268.1587-.06.3183-.0859.4769q-.3117,1.8912-.55,3.77c-.0459.3564-.0818.7106-.1237,1.0664-.1061.8994-.2026,1.797-.2838,2.6912-.0389.4286-.0732.8558-.1063,1.2831q-.0986,1.2731-.1613,2.5373c-.02.4054-.044.8114-.059,1.2154-.0448,1.197-.074,2.39-.0706,3.5733h0c.0038,1.2424.0387,2.4592.0954,3.6576.016.3388.0443.667.0645,1.0022.05.8244.1068,1.6423.1816,2.4452.0429.4632.0967.917.1479,1.373.0765.68.1584,1.3542.2528,2.0176.07.4889.1466.971.2258,1.451q.1511.915.3252,1.8087.1571.8053.3328,1.5924.18.8058.3791,1.5918.2337.9252.4946,1.8231c.18.6246.36,1.25.5593,1.8557.0481.1466.0941.2952.1434.4406q.4346,1.2839.9274,2.5066c.086.2152.1753.4267.2638.639q.448,1.0749.9373,2.1041c.0648.1358.1255.276.1914.4105q.6242,1.2748,1.3108,2.4774l.0246.0443q.6921,1.2031,1.45,2.3272c.1032.154.2131.2995.318.4513q.5767.8349,1.1871,1.6277c.1648.2135.3328.4232.5015.632q.5812.72,1.1921,1.4c.1555.1738.3078.352.4663.5221.56.6007,1.1331,1.1824,1.7267,1.7359.0855.08.1761.1525.2624.2314q.7744.7074,1.5861,1.361c.1983.16.4006.3141.6022.4692q.6951.5349,1.4159,1.031c.2.138.3988.279.602.4125.6682.4392,1.3469.8614,2.0454,1.2516l.01.006-.0025-.0014.0025.0014L110.2557,653.95l-.0017-.0011c-.7018-.3916-1.3835-.816-2.0547-1.2571-.2023-.133-.4-.2731-.599-.41q-.7224-.4977-1.42-1.0337c-.2005-.1544-.4017-.3076-.5992-.4668q-.814-.6566-1.5916-1.366c-.0846-.0772-.1733-.1484-.2572-.2267-.5941-.5538-1.168-1.136-1.7281-1.7372-.1578-.1695-.3094-.3471-.4646-.52q-.6112-.6825-1.1941-1.4024c-.1682-.2082-.3356-.4171-.5-.63q-.6124-.7929-1.1892-1.631c-.1041-.1509-.2135-.2952-.316-.4481-.03-.0449-.0628-.0866-.0926-.1317q-.7067-1.0641-1.3574-2.1963l-.0247-.0445q-.6445-1.1238-1.2337-2.3123c-.0265-.0535-.05-.11-.0765-.1642-.066-.1349-.127-.2754-.1921-.4114q-.4911-1.03-.939-2.1083c-.0874-.21-.1756-.4183-.26-.6307-.0633-.1584-.1324-.3106-.1944-.4705-.258-.6658-.5-1.3485-.7343-2.04-.0494-.1459-.0955-.295-.1439-.4419-.1118-.34-.2271-.6768-.3331-1.0231-.0824-.2691-.1463-.5568-.2251-.83q-.26-.901-.4957-1.8269c-.0634-.2513-.1409-.4887-.2016-.7429-.0655-.2756-.1146-.5671-.1768-.8461q-.1756-.7877-.3329-1.5924c-.0538-.276-.1206-.54-.1713-.8187-.0586-.324-.1-.6637-.1542-.9919-.0793-.48-.1562-.9622-.2258-1.4511-.0353-.2488-.082-.4872-.1149-.7382-.0545-.417-.09-.8516-.1374-1.2749-.0515-.4579-.1053-.9133-.1485-1.3785-.0174-.1862-.0437-.3646-.06-.5519-.0524-.6163-.083-1.2515-.121-1.88-.02-.34-.0493-.6727-.0656-1.0162-.0038-.0825-.012-.1615-.0157-.2444q-.07-1.5837-.0786-3.2187l-.0007-.1861Z"/><path class="cls-3" d="M179.7712,507.8447l147.3555-81.6906c38.2846-21.2241,69.4234-4.1851,69.5481,38.0564.1114,37.7037-24.5154,82.731-57.03,107.0712l11.56,38.3467L282.29,604.2418,180.2228,660.8255c-38.2907,21.2276-69.4295,4.1886-69.5542-38.06C110.5438,580.5244,141.48,529.0723,179.7712,507.8447Z"/><path class="cls-63" d="M329.6614,484.2036c-8.6713,4.8072-15.6729,16.4591-15.6446,26.0194s7.0755,13.4238,15.7469,8.6166c8.6648-4.8035,15.6728-16.4589,15.6445-26.0193S338.3262,479.4,329.6614,484.2036Z"/><path class="cls-63" d="M253.6206,526.359c-8.6713,4.8071-15.673,16.4589-15.6447,26.0193s7.0756,13.4238,15.747,8.6166c8.6648-4.8035,15.6728-16.4589,15.6446-26.0193S262.2854,521.5554,253.6206,526.359Z"/><ellipse class="cls-63" cx="177.6309" cy="585.8323" rx="21.4777" ry="12.6766" transform="translate(-412.5675 423.2961) rotate(-57.735)"/></svg>